ffmpeg started on 2025-05-28 at 11:42:57
Report written to "D:\Convert\FFMetrics\reports\ssim_report-6.txt"
Log level: 32
Command line:
ffmpeg -hide_banner -nostdin -i "G:\\\xc0\xed\xe8\xec\xe5\\\xce\xed\xe3\xee\xe8\xed\xe3\xe8\\!_36_\xce\xf1\xe5\xed\xfc_2024\\JamClub\\SAO\\\xc0\xeb\xfc\xf2\xe5\xf0\xed\xe0\xf2\xe8\xe2\xed\xe0\xff \xab\xcf\xf0\xe8\xe7\xf0\xe0\xf7\xed\xe0\xff \xef\xf3\xeb\xff\xbb\\\xd2\xc2-2\\JamClub_Sword_Art_Online_Alternative_Gun_Gale_Online_II_09_1080p_HEVC.mkv" -i "G:\\\xc0\xed\xe8\xec\xe5\\\xce\xed\xe3\xee\xe8\xed\xe3\xe8\\!_36_\xce\xf1\xe5\xed\xfc_2024\\JamClub\\SAO\\\xc0\xeb\xfc\xf2\xe5\xf0\xed\xe0\xf2\xe8\xe2\xed\xe0\xff \xab\xcf\xf0\xe8\xe7\xf0\xe0\xf7\xed\xe0\xff \xef\xf3\xeb\xff\xbb\\\xd2\xc2-2\\JamClub_Sword_Art_Online_Alternative_Gun_Gale_Online_II_09_1080p.mp4" -lavfi "[0:v]settb=AVTB,setpts=PTS-STARTPTS,format=pix_fmts=yuv420p10,fps=24000/1001,scale=1920:1080:flags=bicubic[main];[1:v]settb=AVTB,setpts=PTS-STARTPTS,format=pix_fmts=yuv420p,fps=24000/1001,scale=1920:1080:flags=bicubic[ref];[main][ref]ssim=eof_action=endall:stats_file='D\\:/Convert/FFMetrics/logs/ssim_logfile-6.txt'" -f null -
Input #0, matroska,webm, from 'G:\Аниме\Онгоинги\!_36_Осень_2024\JamClub\SAO\Альтернативная «Призрачная пуля»\ТВ-2\JamClub_Sword_Art_Online_Alternative_Gun_Gale_Online_II_09_1080p_HEVC.mkv':
  Metadata:
    COMPATIBLE_BRANDS: isomiso2avc1mp41
    MAJOR_BRAND     : isom
    MINOR_VERSION   : 512
    ENCODER         : Lavf61.7.100
  Duration: 00:24:02.22, start: -0.001000, bitrate: 1446 kb/s
  Stream #0:0: Video: hevc (Main 10), yuv420p10le(tv, bt709, progressive), 1920x1080 [SAR 1:1 DAR 16:9], 23.98 fps, 23.98 tbr, 1k tbn (default)
      Metadata:
        HANDLER_NAME    : VideoHandler
        VENDOR_ID       : [0][0][0][0]
        ENCODER         : Lavc61.19.100 libx265
        BPS             : 1248783
        DURATION        : 00:24:02.148708333
        NUMBER_OF_FRAMES: 34577
        NUMBER_OF_BYTES : 225116264
        _STATISTICS_WRITING_APP: mkvpropedit v66.0.0 ('Josie') 64-bit
        _STATISTICS_WRITING_DATE_UTC: 2025-05-27 16:46:58
        _STATISTICS_TAGS: BPS DURATION NUMBER_OF_FRAMES NUMBER_OF_BYTES
  Stream #0:1(eng): Audio: aac (LC), 48000 Hz, stereo, fltp (default)
      Metadata:
        HANDLER_NAME    : SoundHandler
        VENDOR_ID       : [0][0][0][0]
        ENCODER         : Lavc61.19.100 aac
        BPS             : 193377
        DURATION        : 00:24:02.179000000
        NUMBER_OF_FRAMES: 67603
        NUMBER_OF_BYTES : 34860700
        _STATISTICS_WRITING_APP: mkvpropedit v66.0.0 ('Josie') 64-bit
        _STATISTICS_WRITING_DATE_UTC: 2025-05-27 16:46:58
        _STATISTICS_TAGS: BPS DURATION NUMBER_OF_FRAMES NUMBER_OF_BYTES
Input #1, mov,mp4,m4a,3gp,3g2,mj2, from 'G:\Аниме\Онгоинги\!_36_Осень_2024\JamClub\SAO\Альтернативная «Призрачная пуля»\ТВ-2\JamClub_Sword_Art_Online_Alternative_Gun_Gale_Online_II_09_1080p.mp4':
  Metadata:
    major_brand     : isom
    minor_version   : 512
    compatible_brands: isomiso2avc1mp41
    encoder         : Lavf60.16.100
  Duration: 00:24:02.20, start: 0.000000, bitrate: 4206 kb/s
  Stream #1:0[0x1](und): Video: h264 (High) (avc1 / 0x31637661), yuv420p(progressive), 1920x1080 [SAR 1:1 DAR 16:9], 4008 kb/s, 23.98 fps, 23.98 tbr, 90k tbn (default)
      Metadata:
        handler_name    : VideoHandler
        vendor_id       : [0][0][0][0]
  Stream #1:1[0x2](eng): Audio: aac (LC) (mp4a / 0x6134706D), 48000 Hz, stereo, fltp, 191 kb/s (default)
      Metadata:
        handler_name    : SoundHandler
        vendor_id       : [0][0][0][0]
Stream mapping:
  Stream #0:0 (hevc) -> settb:default
  Stream #1:0 (h264) -> settb:default
  ssim:default -> Stream #0:0 (wrapped_avframe)
  Stream #0:1 -> #0:1 (aac (native) -> pcm_s16le (native))
Output #0, null, to 'pipe:':
  Metadata:
    COMPATIBLE_BRANDS: isomiso2avc1mp41
    MAJOR_BRAND     : isom
    MINOR_VERSION   : 512
    encoder         : Lavf61.7.100
  Stream #0:0: Video: wrapped_avframe, yuv420p10le(tv, bt709, progressive), 1920x1080 [SAR 1:1 DAR 16:9], q=2-31, 200 kb/s, 23.98 fps, 23.98 tbn
      Metadata:
        encoder         : Lavc61.19.100 wrapped_avframe
  Stream #0:1(eng): Audio: pcm_s16le, 48000 Hz, stereo, s16, 1536 kb/s (default)
      Metadata:
        HANDLER_NAME    : SoundHandler
        VENDOR_ID       : [0][0][0][0]
        _STATISTICS_TAGS: BPS DURATION NUMBER_OF_FRAMES NUMBER_OF_BYTES
        BPS             : 193377
        DURATION        : 00:24:02.179000000
        NUMBER_OF_FRAMES: 67603
        NUMBER_OF_BYTES : 34860700
        _STATISTICS_WRITING_APP: mkvpropedit v66.0.0 ('Josie') 64-bit
        _STATISTICS_WRITING_DATE_UTC: 2025-05-27 16:46:58
        encoder         : Lavc61.19.100 pcm_s16le
frame=  115 fps=0.0 q=-0.0 size=N/A time=00:00:04.79 bitrate=N/A speed=9.16x    frame=  276 fps=267 q=-0.0 size=N/A time=00:00:11.51 bitrate=N/A speed=11.1x    frame=  473 fps=306 q=-0.0 size=N/A time=00:00:19.72 bitrate=N/A speed=12.8x    frame=  722 fps=349 q=-0.0 size=N/A time=00:00:30.11 bitrate=N/A speed=14.6x    frame=  940 fps=365 q=-0.0 size=N/A time=00:00:39.20 bitrate=N/A speed=15.2x    frame= 1162 fps=375 q=-0.0 size=N/A time=00:00:48.46 bitrate=N/A speed=15.6x    frame= 1400 fps=387 q=-0.0 size=N/A time=00:00:58.39 bitrate=N/A speed=16.1x    frame= 1629 fps=395 q=-0.0 size=N/A time=00:01:07.94 bitrate=N/A speed=16.5x    frame= 1860 fps=400 q=-0.0 size=N/A time=00:01:17.57 bitrate=N/A speed=16.7x    frame= 1994 fps=386 q=-0.0 size=N/A time=00:01:23.16 bitrate=N/A speed=16.1x    frame= 2203 fps=389 q=-0.0 size=N/A time=00:01:31.88 bitrate=N/A speed=16.2x    frame= 2443 fps=394 q=-0.0 size=N/A time=00:01:41.89 bitrate=N/A speed=16.4x    frame= 2633 fps=392 q=-0.0 size=N/A time=00:01:49.81 bitrate=N/A speed=16.4x    frame= 2857 fps=396 q=-0.0 size=N/A time=00:01:59.16 bitrate=N/A speed=16.5x    frame= 3103 fps=401 q=-0.0 size=N/A time=00:02:09.42 bitrate=N/A speed=16.7x    frame= 3291 fps=399 q=-0.0 size=N/A time=00:02:17.26 bitrate=N/A speed=16.6x    frame= 3485 fps=397 q=-0.0 size=N/A time=00:02:25.35 bitrate=N/A speed=16.6x    frame= 3683 fps=397 q=-0.0 size=N/A time=00:02:33.61 bitrate=N/A speed=16.5x    frame= 3908 fps=398 q=-0.0 size=N/A time=00:02:42.99 bitrate=N/A speed=16.6x    frame= 4127 fps=400 q=-0.0 size=N/A time=00:02:52.13 bitrate=N/A speed=16.7x    frame= 4294 fps=397 q=-0.0 size=N/A time=00:02:59.09 bitrate=N/A speed=16.5x    frame= 4480 fps=395 q=-0.0 size=N/A time=00:03:06.85 bitrate=N/A speed=16.5x    frame= 4615 fps=389 q=-0.0 size=N/A time=00:03:12.48 bitrate=N/A speed=16.2x    frame= 4788 fps=387 q=-0.0 size=N/A time=00:03:19.69 bitrate=N/A speed=16.1x    frame= 4977 fps=386 q=-0.0 size=N/A time=00:03:27.58 bitrate=N/A speed=16.1x    frame= 5139 fps=383 q=-0.0 size=N/A time=00:03:34.33 bitrate=N/A speed=  16x    frame= 5302 fps=381 q=-0.0 size=N/A time=00:03:41.13 bitrate=N/A speed=15.9x    frame= 5528 fps=383 q=-0.0 size=N/A time=00:03:50.56 bitrate=N/A speed=  16x    frame= 5780 fps=386 q=-0.0 size=N/A time=00:04:01.07 bitrate=N/A speed=16.1x    frame= 6010 fps=388 q=-0.0 size=N/A time=00:04:10.66 bitrate=N/A speed=16.2x    frame= 6262 fps=392 q=-0.0 size=N/A time=00:04:21.17 bitrate=N/A speed=16.3x    frame= 6525 fps=395 q=-0.0 size=N/A time=00:04:32.14 bitrate=N/A speed=16.5x    frame= 6788 fps=399 q=-0.0 size=N/A time=00:04:43.11 bitrate=N/A speed=16.6x    frame= 7060 fps=403 q=-0.0 size=N/A time=00:04:54.46 bitrate=N/A speed=16.8x    frame= 7318 fps=405 q=-0.0 size=N/A time=00:05:05.22 bitrate=N/A speed=16.9x    frame= 7550 fps=407 q=-0.0 size=N/A time=00:05:14.89 bitrate=N/A speed=  17x    frame= 7790 fps=408 q=-0.0 size=N/A time=00:05:24.90 bitrate=N/A speed=  17x    frame= 8060 fps=411 q=-0.0 size=N/A time=00:05:36.16 bitrate=N/A speed=17.2x    frame= 8328 fps=414 q=-0.0 size=N/A time=00:05:47.34 bitrate=N/A speed=17.3x    frame= 8601 fps=417 q=-0.0 size=N/A time=00:05:58.73 bitrate=N/A speed=17.4x    frame= 8846 fps=418 q=-0.0 size=N/A time=00:06:08.95 bitrate=N/A speed=17.5x    frame= 9071 fps=419 q=-0.0 size=N/A time=00:06:18.33 bitrate=N/A speed=17.5x    frame= 9296 fps=419 q=-0.0 size=N/A time=00:06:27.72 bitrate=N/A speed=17.5x    frame= 9570 fps=422 q=-0.0 size=N/A time=00:06:39.14 bitrate=N/A speed=17.6x    frame= 9817 fps=423 q=-0.0 size=N/A time=00:06:49.45 bitrate=N/A speed=17.6x    frame=10085 fps=425 q=-0.0 size=N/A time=00:07:00.62 bitrate=N/A speed=17.7x    frame=10314 fps=425 q=-0.0 size=N/A time=00:07:10.17 bitrate=N/A speed=17.7x    frame=10559 fps=427 q=-0.0 size=N/A time=00:07:20.39 bitrate=N/A speed=17.8x    frame=10833 fps=429 q=-0.0 size=N/A time=00:07:31.82 bitrate=N/A speed=17.9x    frame=11096 fps=430 q=-0.0 size=N/A time=00:07:42.79 bitrate=N/A speed=17.9x    frame=11361 fps=432 q=-0.0 size=N/A time=00:07:53.84 bitrate=N/A speed=  18x    frame=11622 fps=433 q=-0.0 size=N/A time=00:08:04.73 bitrate=N/A speed=18.1x    frame=11878 fps=434 q=-0.0 size=N/A time=00:08:15.41 bitrate=N/A speed=18.1x    frame=12126 fps=435 q=-0.0 size=N/A time=00:08:25.75 bitrate=N/A speed=18.2x    frame=12368 fps=436 q=-0.0 size=N/A time=00:08:35.84 bitrate=N/A speed=18.2x    frame=12622 fps=437 q=-0.0 size=N/A time=00:08:46.44 bitrate=N/A speed=18.2x    frame=12896 fps=438 q=-0.0 size=N/A time=00:08:57.87 bitrate=N/A speed=18.3x    frame=13174 fps=440 q=-0.0 size=N/A time=00:09:09.46 bitrate=N/A speed=18.4x    frame=13441 fps=442 q=-0.0 size=N/A time=00:09:20.60 bitrate=N/A speed=18.4x    frame=13692 fps=442 q=-0.0 size=N/A time=00:09:31.07 bitrate=N/A speed=18.5x    frame=13964 fps=444 q=-0.0 size=N/A time=00:09:42.41 bitrate=N/A speed=18.5x    frame=14212 fps=444 q=-0.0 size=N/A time=00:09:52.75 bitrate=N/A speed=18.5x    frame=14463 fps=445 q=-0.0 size=N/A time=00:10:03.22 bitrate=N/A speed=18.6x    frame=14716 fps=446 q=-0.0 size=N/A time=00:10:13.77 bitrate=N/A speed=18.6x    frame=14991 fps=447 q=-0.0 size=N/A time=00:10:25.24 bitrate=N/A speed=18.6x    frame=15260 fps=448 q=-0.0 size=N/A time=00:10:36.46 bitrate=N/A speed=18.7x    frame=15543 fps=450 q=-0.0 size=N/A time=00:10:48.27 bitrate=N/A speed=18.8x    frame=15795 fps=450 q=-0.0 size=N/A time=00:10:58.78 bitrate=N/A speed=18.8x    frame=16066 fps=451 q=-0.0 size=N/A time=00:11:10.08 bitrate=N/A speed=18.8x    frame=16316 fps=452 q=-0.0 size=N/A time=00:11:20.51 bitrate=N/A speed=18.8x    frame=16551 fps=452 q=-0.0 size=N/A time=00:11:30.31 bitrate=N/A speed=18.8x    frame=16768 fps=451 q=-0.0 size=N/A time=00:11:39.36 bitrate=N/A speed=18.8x    frame=17032 fps=452 q=-0.0 size=N/A time=00:11:50.37 bitrate=N/A speed=18.9x    frame=17283 fps=453 q=-0.0 size=N/A time=00:12:00.84 bitrate=N/A speed=18.9x    frame=17529 fps=453 q=-0.0 size=N/A time=00:12:11.10 bitrate=N/A speed=18.9x    frame=17791 fps=454 q=-0.0 size=N/A time=00:12:22.03 bitrate=N/A speed=18.9x    frame=18047 fps=454 q=-0.0 size=N/A time=00:12:32.71 bitrate=N/A speed=18.9x    frame=18314 fps=455 q=-0.0 size=N/A time=00:12:43.84 bitrate=N/A speed=  19x    frame=18572 fps=456 q=-0.0 size=N/A time=00:12:54.60 bitrate=N/A speed=  19x    frame=18847 fps=457 q=-0.0 size=N/A time=00:13:06.07 bitrate=N/A speed=  19x    frame=19103 fps=457 q=-0.0 size=N/A time=00:13:16.75 bitrate=N/A speed=19.1x    frame=19367 fps=458 q=-0.0 size=N/A time=00:13:27.76 bitrate=N/A speed=19.1x    frame=19604 fps=458 q=-0.0 size=N/A time=00:13:37.65 bitrate=N/A speed=19.1x    frame=19862 fps=458 q=-0.0 size=N/A time=00:13:48.41 bitrate=N/A speed=19.1x    frame=20136 fps=459 q=-0.0 size=N/A time=00:13:59.83 bitrate=N/A speed=19.2x    frame=20414 fps=460 q=-0.0 size=N/A time=00:14:11.43 bitrate=N/A speed=19.2x    frame=20683 fps=461 q=-0.0 size=N/A time=00:14:22.65 bitrate=N/A speed=19.2x    frame=20964 fps=462 q=-0.0 size=N/A time=00:14:34.37 bitrate=N/A speed=19.3x    frame=21230 fps=462 q=-0.0 size=N/A time=00:14:45.46 bitrate=N/A speed=19.3x    frame=21498 fps=463 q=-0.0 size=N/A time=00:14:56.64 bitrate=N/A speed=19.3x    frame=21716 fps=463 q=-0.0 size=N/A time=00:15:05.73 bitrate=N/A speed=19.3x    frame=21970 fps=463 q=-0.0 size=N/A time=00:15:16.33 bitrate=N/A speed=19.3x    frame=22232 fps=463 q=-0.0 size=N/A time=00:15:27.25 bitrate=N/A speed=19.3x    frame=22439 fps=463 q=-0.0 size=N/A time=00:15:35.89 bitrate=N/A speed=19.3x    frame=22609 fps=461 q=-0.0 size=N/A time=00:15:42.98 bitrate=N/A speed=19.2x    frame=22832 fps=461 q=-0.0 size=N/A time=00:15:52.28 bitrate=N/A speed=19.2x    frame=23084 fps=461 q=-0.0 size=N/A time=00:16:02.79 bitrate=N/A speed=19.2x    frame=23350 fps=462 q=-0.0 size=N/A time=00:16:13.88 bitrate=N/A speed=19.3x    frame=23610 fps=462 q=-0.0 size=N/A time=00:16:24.73 bitrate=N/A speed=19.3x    frame=23843 fps=462 q=-0.0 size=N/A time=00:16:34.45 bitrate=N/A speed=19.3x    frame=24088 fps=462 q=-0.0 size=N/A time=00:16:44.67 bitrate=N/A speed=19.3x    frame=24335 fps=462 q=-0.0 size=N/A time=00:16:54.97 bitrate=N/A speed=19.3x    frame=24580 fps=463 q=-0.0 size=N/A time=00:17:05.19 bitrate=N/A speed=19.3x    frame=24839 fps=463 q=-0.0 size=N/A time=00:17:15.99 bitrate=N/A speed=19.3x    frame=25106 fps=463 q=-0.0 size=N/A time=00:17:27.12 bitrate=N/A speed=19.3x    frame=25345 fps=463 q=-0.0 size=N/A time=00:17:37.09 bitrate=N/A speed=19.3x    frame=25603 fps=464 q=-0.0 size=N/A time=00:17:47.85 bitrate=N/A speed=19.3x    frame=25882 fps=465 q=-0.0 size=N/A time=00:17:59.49 bitrate=N/A speed=19.4x    frame=26137 fps=465 q=-0.0 size=N/A time=00:18:10.13 bitrate=N/A speed=19.4x    frame=26351 fps=464 q=-0.0 size=N/A time=00:18:19.05 bitrate=N/A speed=19.4x    frame=26590 fps=464 q=-0.0 size=N/A time=00:18:29.02 bitrate=N/A speed=19.4x    frame=26801 fps=464 q=-0.0 size=N/A time=00:18:37.82 bitrate=N/A speed=19.3x    frame=27023 fps=464 q=-0.0 size=N/A time=00:18:47.08 bitrate=N/A speed=19.3x    frame=27243 fps=463 q=-0.0 size=N/A time=00:18:56.26 bitrate=N/A speed=19.3x    frame=27466 fps=463 q=-0.0 size=N/A time=00:19:05.56 bitrate=N/A speed=19.3x    frame=27701 fps=463 q=-0.0 size=N/A time=00:19:15.36 bitrate=N/A speed=19.3x    frame=27973 fps=463 q=-0.0 size=N/A time=00:19:26.70 bitrate=N/A speed=19.3x    frame=28239 fps=464 q=-0.0 size=N/A time=00:19:37.80 bitrate=N/A speed=19.3x    frame=28511 fps=464 q=-0.0 size=N/A time=00:19:49.14 bitrate=N/A speed=19.4x    frame=28743 fps=464 q=-0.0 size=N/A time=00:19:58.82 bitrate=N/A speed=19.4x    frame=28954 fps=464 q=-0.0 size=N/A time=00:20:07.62 bitrate=N/A speed=19.3x    frame=29169 fps=463 q=-0.0 size=N/A time=00:20:16.59 bitrate=N/A speed=19.3x    frame=29417 fps=463 q=-0.0 size=N/A time=00:20:26.93 bitrate=N/A speed=19.3x    frame=29670 fps=464 q=-0.0 size=N/A time=00:20:37.48 bitrate=N/A speed=19.3x    frame=29926 fps=464 q=-0.0 size=N/A time=00:20:48.16 bitrate=N/A speed=19.3x    frame=30170 fps=464 q=-0.0 size=N/A time=00:20:58.34 bitrate=N/A speed=19.4x    frame=30431 fps=464 q=-0.0 size=N/A time=00:21:09.22 bitrate=N/A speed=19.4x    frame=30683 fps=464 q=-0.0 size=N/A time=00:21:19.73 bitrate=N/A speed=19.4x    frame=30881 fps=464 q=-0.0 size=N/A time=00:21:27.99 bitrate=N/A speed=19.3x    frame=31133 fps=464 q=-0.0 size=N/A time=00:21:38.50 bitrate=N/A speed=19.4x    frame=31388 fps=464 q=-0.0 size=N/A time=00:21:49.14 bitrate=N/A speed=19.4x    frame=31656 fps=465 q=-0.0 size=N/A time=00:22:00.31 bitrate=N/A speed=19.4x    frame=31903 fps=465 q=-0.0 size=N/A time=00:22:10.62 bitrate=N/A speed=19.4x    frame=32138 fps=465 q=-0.0 size=N/A time=00:22:20.42 bitrate=N/A speed=19.4x    frame=32347 fps=464 q=-0.0 size=N/A time=00:22:29.13 bitrate=N/A speed=19.4x    frame=32524 fps=463 q=-0.0 size=N/A time=00:22:36.52 bitrate=N/A speed=19.3x    frame=32697 fps=462 q=-0.0 size=N/A time=00:22:43.73 bitrate=N/A speed=19.3x    frame=32871 fps=462 q=-0.0 size=N/A time=00:22:50.99 bitrate=N/A speed=19.3x    frame=33040 fps=461 q=-0.0 size=N/A time=00:22:58.04 bitrate=N/A speed=19.2x    frame=33215 fps=460 q=-0.0 size=N/A time=00:23:05.34 bitrate=N/A speed=19.2x    frame=33396 fps=459 q=-0.0 size=N/A time=00:23:12.89 bitrate=N/A speed=19.1x    frame=33560 fps=458 q=-0.0 size=N/A time=00:23:19.73 bitrate=N/A speed=19.1x    frame=33700 fps=457 q=-0.0 size=N/A time=00:23:25.57 bitrate=N/A speed=  19x    frame=33875 fps=456 q=-0.0 size=N/A time=00:23:32.86 bitrate=N/A speed=  19x    frame=34052 fps=455 q=-0.0 size=N/A time=00:23:40.25 bitrate=N/A speed=  19x    frame=34282 fps=455 q=-0.0 size=N/A time=00:23:49.84 bitrate=N/A speed=  19x    frame=34508 fps=455 q=-0.0 size=N/A time=00:23:59.27 bitrate=N/A speed=  19x    [Parsed_ssim_10 @ 0000016b97629180] SSIM Y:0.994099 (22.290783) U:0.994449 (22.555902) V:0.994296 (22.438172) All:0.994190 (22.358323)
[out#0/null @ 0000016b913a25c0] video:14857KiB audio:270412KiB subtitle:0KiB other streams:0KiB global headers:0KiB muxing overhead: unknown
frame=34577 fps=455 q=-0.0 Lsize=N/A time=00:24:02.14 bitrate=N/A speed=  19x    
